<svg xmlns="http://www.w3.org/2000/svg" xmlns:xlink="http://www.w3.org/1999/xlink" width="160" height="160" viewBox="0 0 160 160">
  <defs>
    <path id="ahoy-cover-a" d="M29.7518011,15.7223343 C38.0083452,15.7223343 40.5430856,9.68540926 39.8721249,4.70165498 C39.6029721,2.44025014 41.1482707,0.366718175 43.3760307,0 C46.7121964,7.33458177 43.7860623,21.2796905 31.3732895,22.1541983 C30.3906436,22.1833647 29.5994056,22.9776543 29.5654232,23.9690371 L29.397683,32.065287 C29.3855851,32.6386705 29.633434,33.1862875 30.070807,33.5525405 C30.5081801,33.9187934 31.0872704,34.0636492 31.6435375,33.945949 C38.30655,32.7893418 41.512251,35.9112408 42.5932433,37.55682 C46.4792239,43.0295464 44.5036175,52.573906 37.933794,60.2564103 L35.1381245,57.792743 C41.0369872,50.9001168 42.0434283,44.139137 39.6018768,40.6787189 C37.7846916,38.1398252 34.3739748,37.8629292 29.5654232,39.5367184 L24.2077296,41.0186571 L17.5322535,59.7925588 L12.7581699,60.2564103 L17.5322535,35.3504274 L19.2180442,26.8217862 L0,35.3504274 C0.00523813103,32.7922717 1.46596867,30.4490108 3.79043846,29.2699176 L29.7518011,15.7223343 Z"/>
  </defs>
  <g fill="none" fill-rule="evenodd">
    <rect width="160" height="160"/>
    <g transform="translate(19 33)">
      <g transform="translate(15.15)">
        <g transform="translate(55.749 8.589)">
          <polygon fill="#57D3D2" fill-rule="nonzero" points="9.637 9.89 43.924 9.89 43.924 13.103 12.826 13.103"/>
          <polygon fill="#FFF" fill-rule="nonzero" stroke="#130ABF" stroke-width="3.2" points=".86 6.683 20.008 6.683 20.008 13.097 .86 13.097"/>
          <path fill="#FFF" fill-rule="nonzero" stroke="#130ABF" stroke-width="3.2" d="M31.9581411,1.0588722 L47.916311,1.0588722 L47.916311,18.7204107 L31.9581411,18.7204107 L31.9581411,1.0588722 Z M8.8339581,5.07596622 L31.171213,5.07596622 L31.171213,14.7033166 L8.8339581,14.7033166 L8.8339581,5.07596622 Z"/>
          <polygon fill="#928CFF" fill-rule="nonzero" points="33.558 12.3 46.316 12.3 46.316 17.12 33.558 17.12"/>
          <polygon fill="#928CFF" fill-rule="nonzero" points="10.434 9.89 29.571 9.89 29.571 13.103 10.434 13.103"/>
          <path stroke="#130ABF" stroke-linecap="square" stroke-width="1.6" d="M43.1267686,0.650325191 L43.1267686,19.1289577"/>
        </g>
        <g transform="translate(8.865)">
          <ellipse cx="33.49" cy="19.282" fill="#FFF" fill-rule="nonzero" stroke="#130ABF" stroke-width="3.2" rx="10.366" ry="10.444"/>
          <path stroke="#979797" stroke-linecap="square" stroke-width=".8" d="M24.2264514,36.5555556 L21.8342945,46.1965812"/>
          <path fill="#928CFF" fill-rule="nonzero" stroke="#130ABF" stroke-width="3.2" d="M13.6962707,27.552539 C18.1001098,27.552539 21.6701269,24.0574726 21.6701269,19.7460897 C21.6701269,15.4347068 18.1001098,16.2765567 13.6962707,16.2765567 C9.29243148,16.2765567 5.72241446,15.4347068 5.72241446,19.7460897 C5.72241446,24.0574726 9.29243148,27.552539 13.6962707,27.552539 Z"/>
          <path stroke="#130ABF" stroke-linecap="round" stroke-width="1.6" d="M8.53671665,31.4863712 C16.3081976,31.4863712 22.6082276,24.9331217 22.6082276,16.8492788"/>
          <path fill="#928CFF" fill-rule="nonzero" stroke="#130ABF" stroke-width="3.2" d="M29.8498635,20.7116116 C36.420135,20.7116116 41.7463924,16.2167262 41.7463924,10.6720041 C41.7463924,5.12728192 36.420135,6.20995626 29.8498635,6.20995626 C23.279592,6.20995626 17.3054043,8.94984896 17.9533345,10.6720041 C18.6012647,12.3941592 23.279592,20.7116116 29.8498635,20.7116116 Z" transform="rotate(140 29.826 13.418)"/>
          <path stroke="#130ABF" stroke-linecap="round" stroke-width="1.6" d="M20.6382161,18.6541864 C28.409697,18.6541864 34.709727,12.1009369 34.709727,4.01709402"/>
          <path stroke="#130ABF" stroke-linecap="round" stroke-width="1.6" d="M3.09572866,26.6887282 C10.8672096,26.6887282 17.1672397,20.1354787 17.1672397,12.0516359" transform="rotate(40 10.131 19.37)"/>
        </g>
        <g transform="translate(0 13.248)">
          <g transform="translate(9.96 .82)">
            <path fill="#FFF" fill-rule="nonzero" stroke="#130ABF" stroke-width="3.2" d="M27.4364322,44.338876 L20.6991066,63.2867214 L12.7841373,64.0557422 L13.1867782,61.9551993 L17.9626227,37.0401705 L19.0509918,31.5339657 L0.39495383,39.813198 L0.40000335,37.3471512 C0.40648049,34.1839016 2.2088317,31.2926229 5.05022443,29.8514384 L31.3594372,16.1223343 L31.7518011,16.1223343 C38.0027448,16.1223343 40.9848438,12.1028001 40.2833385,6.89075262 C39.9133781,3.78236829 42.0409997,0.92745628 45.1161475,0.4212471 L46.3251433,0.22223073 L46.8324476,1.33754259 C48.7384965,5.52800328 48.7406473,11.3194483 46.7590658,16.1110831 C44.4575812,21.6762711 39.8387441,25.3026583 33.420759,25.7534939 C33.2846747,25.7575331 33.1696549,25.8729965 33.1650799,26.0021792 L32.997327,34.0990382 C32.995451,34.187949 33.0333381,34.2716598 33.0980379,34.3258389 C33.1589968,34.3768854 33.2373176,34.3964769 33.3698918,34.3695233 C39.4537953,33.3134415 43.7479648,35.3558876 45.8978172,38.6304903 C50.2755686,44.79579 48.1540019,55.1058301 41.149791,63.2962907 L40.0943321,64.5305047 L34.897148,59.9505171 L35.922521,58.7524026 C41.028024,52.7867911 42.436925,46.6375539 40.3007982,43.6099516 C39.0236021,41.8255076 36.3985801,41.5485249 32.0914064,43.0477914 L31.9919671,43.0788145 L27.4364322,44.338876 Z"/>
            <path stroke="#130ABF" stroke-width="3.2" d="M27.4364322,44.338876 L20.6991066,63.2867214 L12.7841373,64.0557422 L13.1867782,61.9551993 L17.9626227,37.0401705 L19.0509918,31.5339657 L0.39495383,39.813198 L0.40000335,37.3471512 C0.40648049,34.1839016 2.2088317,31.2926229 5.05022443,29.8514384 L31.3594372,16.1223343 L31.7518011,16.1223343 C38.0027448,16.1223343 40.9848438,12.1028001 40.2833385,6.89075262 C39.9133781,3.78236829 42.0409997,0.92745628 45.1161475,0.4212471 L46.3251433,0.22223073 L46.8324476,1.33754259 C48.7384965,5.52800328 48.7406473,11.3194483 46.7590658,16.1110831 C44.4575812,21.6762711 39.8387441,25.3026583 33.420759,25.7534939 C33.2846747,25.7575331 33.1696549,25.8729965 33.1650799,26.0021792 L32.997327,34.0990382 C32.995451,34.187949 33.0333381,34.2716598 33.0980379,34.3258389 C33.1589968,34.3768854 33.2373176,34.3964769 33.3698918,34.3695233 C39.4537953,33.3134415 43.7479648,35.3558876 45.8978172,38.6304903 C50.2755686,44.79579 48.1540019,55.1058301 41.149791,63.2962907 L40.0943321,64.5305047 L34.897148,59.9505171 L35.922521,58.7524026 C41.028024,52.7867911 42.436925,46.6375539 40.3007982,43.6099516 C39.0236021,41.8255076 36.3985801,41.5485249 32.0914064,43.0477914 L31.9919671,43.0788145 L27.4364322,44.338876 Z"/>
            <g transform="translate(2 2)">
              <mask id="ahoy-cover-b" fill="#fff">
                <use xlink:href="#ahoy-cover-a"/>
              </mask>
              <polygon fill="#D3D1FE" fill-rule="nonzero" stroke="#130ABF" stroke-width="2.4" points="3.592 42.645 3.592 56.646 49.833 56.646 49.833 27.37" mask="url(#ahoy-cover-b)"/>
            </g>
          </g>
          <g stroke="#130ABF" stroke-width="3.2" transform="translate(0 55.043)">
            <path fill="#F7F7FA" fill-rule="nonzero" d="M74.9542484,24.9059829 C74.7192883,21.8482598 73.1302365,19.0521085 70.6166614,17.2734128 C68.1030863,15.4947171 64.9245538,14.9171552 61.940317,15.6968594 C58.4447675,6.97576593 50.3140238,0.947296265 40.9066687,0.101642562 C31.4993137,-0.744011141 22.4121206,3.73668958 17.3987549,11.6928926 C13.2817817,10.8251719 8.98880393,11.7871143 5.64480084,14.3266417 C2.30079776,16.8661691 0.239108163,20.7301349 0,24.9059829 L74.9542484,24.9059829 Z"/>
            <path stroke-linecap="round" d="M45.4509804,9.64102564 C48.9740517,9.64102564 51.8300654,12.5186484 51.8300654,16.0683761"/>
          </g>
        </g>
        <path stroke="#130ABF" stroke-linecap="square" stroke-width="2.4" d="M31.496732,35.7521368 L27.5098039,54.2307692"/>
      </g>
      <path stroke="#130ABF" stroke-linecap="round" stroke-width="3.2" d="M0,93.1965812 L98.875817,93.1965812 M107.647059,93.1965812 L122,93.1965812"/>
    </g>
  </g>
</svg>
